<svg viewBox="0 -20 220 300" width="220" role="img" aria-label="Наверху окружность и диск, стрелка вложения i вперёд и пунктирная стрелка r обратно, дуга сверху — их композиция тождественна на окружности. Внизу фундаментальные группы: целые числа и единичная группа, дуга снизу показывает, что композиция не может быть тождественной">
<circle class="s-line" cx="54" cy="52" r="24"/>
<circle class="s-fillsh" cx="166" cy="52" r="24"/><circle class="s-line" cx="166" cy="52" r="24"/>
<text class="s-txt" x="54" y="92" text-anchor="middle" font-size="17">S¹</text>
<text class="s-txt" x="166" y="92" text-anchor="middle" font-size="17">D²</text>
<line class="s-thin" x1="84" y1="44" x2="132" y2="44"/><path class="s-ar-m" d="M130,40 l9,4 -9,4 z"/>
<line class="s-dash" x1="136" y1="62" x2="92" y2="62"/><path class="s-ar-a" d="M91,58 l-9,4 9,4 z"/>
<text class="s-txt-m" x="108" y="34" text-anchor="middle" font-size="15">i</text>
<text class="s-txt-m" x="108" y="78" text-anchor="middle" font-size="15">r</text>
<line class="s-dash" x1="54" y1="104" x2="54" y2="148"/><path class="s-ar-a" d="M50,139 l4,9 4,-9 z"/>
<line class="s-dash" x1="166" y1="104" x2="166" y2="148"/><path class="s-ar-a" d="M162,139 l4,9 4,-9 z"/>
<text class="s-txt-m" x="62" y="128" font-size="15">π₁</text>
<text class="s-txt-m" x="174" y="128" font-size="15">π₁</text>
<text class="s-txt" x="54" y="176" text-anchor="middle" font-size="17">ℤ</text>
<text class="s-txt" x="166" y="176" text-anchor="middle" font-size="17">{e}</text>
<line class="s-thin" x1="70" y1="194" x2="146" y2="194"/><path class="s-ar-m" d="M144,190 l9,4 -9,4 z"/>
<line class="s-dash" x1="150" y1="210" x2="73" y2="210"/><path class="s-ar-a" d="M73,206 l-9,4 9,4 z"/>
<path class="s-line" d="M54,20 C54,-14 166,-14 166,20"/>
<text class="s-txt-m" x="110" y="-18" text-anchor="middle" font-size="14">id</text>
<path class="s-line" d="M54,222 C54,256 166,256 166,222"/>
<text class="s-txt-m" x="110" y="270" text-anchor="middle" font-size="14">≠ id</text>
</svg>
