<svg viewBox="0 0 250 200" width="250" role="img" aria-label="Слева граф-путь из четырёх вершин, окрашенных в три сорта; справа треугольник — полный граф на трёх вершинах; между ними стрелка, каждая вершина слева идёт в вершину своего цвета"><circle class="s-node-r" cx="30" cy="46" r="5"></circle><circle class="s-node-a" cx="86" cy="46" r="5"></circle><circle class="s-node" cx="86" cy="118" r="5"></circle><circle class="s-node-a" cx="30" cy="118" r="5"></circle><line class="s-line" x1="36" y1="46" x2="80" y2="46"></line><line class="s-line" x1="86" y1="52" x2="86" y2="112"></line><line class="s-line" x1="80" y1="118" x2="36" y2="118"></line><circle class="s-node-r" cx="196" cy="46" r="5"></circle><circle class="s-node-a" cx="228" cy="112" r="5"></circle><circle class="s-node" cx="164" cy="112" r="5"></circle><line class="s-line" x1="193" y1="52" x2="167" y2="106"></line><line class="s-line" x1="199" y1="52" x2="225" y2="106"></line><line class="s-line" x1="170" y1="112" x2="222" y2="112"></line><line class="s-thin" x1="104" y1="82" x2="142" y2="82"></line><path class="s-ar-m" d="M133,78 l9,4 -9,4 z"></path><text class="s-txt-m" x="123" y="70" text-anchor="middle" font-size="15">f</text><text class="s-txt" x="58" y="166" text-anchor="middle" font-size="17">G</text><text class="s-txt" x="196" y="166" text-anchor="middle" font-size="17">K₃</text></svg>
